<?xml version="1.0" encoding="utf-8"?>
<!-- Generator: Adobe Illustrator 27.5.0, SVG Export Plug-In . SVG Version: 6.00 Build 0)  -->
<svg version="1.1" xmlns="http://www.w3.org/2000/svg" xmlns:xlink="http://www.w3.org/1999/xlink" x="0px" y="0px"
	 viewBox="0 0 500 500" style="enable-background:new 0 0 500 500;" xml:space="preserve">
<g id="Shadows">
	<ellipse style="fill:#FF367C;" cx="317.42" cy="431.126" rx="160.612" ry="20.87"/>
	<ellipse style="fill:#FF367C;" cx="132.318" cy="455.832" rx="114.593" ry="24.705"/>
</g>
<g id="Floor">
	<g id="Layer-45_00000052106091434331079560000014399452740116790460_">
		<path style="fill:none;stroke:#263238;stroke-width:2;stroke-linecap:round;stroke-linejoin:round;stroke-miterlimit:10;" d="
			M398.073,379.674h79.959"/>
		<path style="fill:none;stroke:#263238;stroke-width:2;stroke-linecap:round;stroke-linejoin:round;stroke-miterlimit:10;" d="
			M29.164,379.674h24.938"/>
	</g>
</g>
<g id="Sparkles">
	<g id="Layer-47_2_">
		<g>
			<path style="fill:none;stroke:#263238;stroke-width:2;stroke-linecap:round;stroke-linejoin:round;stroke-miterlimit:10;" d="
				M380.811,81.666v3.413"/>
			<path style="fill:none;stroke:#263238;stroke-width:2;stroke-linecap:round;stroke-linejoin:round;stroke-miterlimit:10;" d="
				M380.811,88.926v3.413"/>
			<path style="fill:none;stroke:#263238;stroke-width:2;stroke-linecap:round;stroke-linejoin:round;stroke-miterlimit:10;" d="
				M386.148,87.002h-3.413"/>
			<path style="fill:none;stroke:#263238;stroke-width:2;stroke-linecap:round;stroke-linejoin:round;stroke-miterlimit:10;" d="
				M378.888,87.002h-3.413"/>
		</g>
		<g>
			<path style="fill:none;stroke:#263238;stroke-width:2;stroke-linecap:round;stroke-linejoin:round;stroke-miterlimit:10;" d="
				M450.605,451.78v3.413"/>
			<path style="fill:none;stroke:#263238;stroke-width:2;stroke-linecap:round;stroke-linejoin:round;stroke-miterlimit:10;" d="
				M450.605,459.041v3.413"/>
			<path style="fill:none;stroke:#263238;stroke-width:2;stroke-linecap:round;stroke-linejoin:round;stroke-miterlimit:10;" d="
				M455.942,457.117h-3.413"/>
			<path style="fill:none;stroke:#263238;stroke-width:2;stroke-linecap:round;stroke-linejoin:round;stroke-miterlimit:10;" d="
				M448.682,457.117h-3.413"/>
		</g>
		<g>
			<path style="fill:none;stroke:#263238;stroke-width:2;stroke-linecap:round;stroke-linejoin:round;stroke-miterlimit:10;" d="
				M52.375,73.136v3.413"/>
			<path style="fill:none;stroke:#263238;stroke-width:2;stroke-linecap:round;stroke-linejoin:round;stroke-miterlimit:10;" d="
				M52.375,80.397v3.413"/>
			<path style="fill:none;stroke:#263238;stroke-width:2;stroke-linecap:round;stroke-linejoin:round;stroke-miterlimit:10;" d="
				M57.712,78.473h-3.413"/>
			<path style="fill:none;stroke:#263238;stroke-width:2;stroke-linecap:round;stroke-linejoin:round;stroke-miterlimit:10;" d="
				M50.452,78.473h-3.413"/>
		</g>
		<g>
			<path style="fill:none;stroke:#263238;stroke-width:2;stroke-linecap:round;stroke-linejoin:round;stroke-miterlimit:10;" d="
				M39.742,286.706v3.412"/>
			<path style="fill:none;stroke:#263238;stroke-width:2;stroke-linecap:round;stroke-linejoin:round;stroke-miterlimit:10;" d="
				M39.742,293.966v3.413"/>
			<path style="fill:none;stroke:#263238;stroke-width:2;stroke-linecap:round;stroke-linejoin:round;stroke-miterlimit:10;" d="
				M45.079,292.042h-3.413"/>
			<path style="fill:none;stroke:#263238;stroke-width:2;stroke-linecap:round;stroke-linejoin:round;stroke-miterlimit:10;" d="
				M37.818,292.042h-3.413"/>
		</g>
	</g>
</g>
<g id="Tag">
	<g id="Layer-44_00000072995818585168102740000006679574073870273941_">
		<g>
			<path style="fill:none;stroke:#FF367C;stroke-width:2;stroke-linecap:round;stroke-linejoin:round;stroke-miterlimit:10;" d="
				M453.941,261.463c-1.803-0.347-28.59,18.096-29.571,21.22c-0.802,2.556-13.494,46.998-13.494,46.998
				c-0.385,1.339,0.451,2.734,1.811,3.037l35.401,7.916c1.239,0.277,2.499-0.449,2.863-1.665c0,0,14.206-45.961,14.371-48.02
				C465.469,289.115,456.069,261.872,453.941,261.463z M449.49,271.233c0.408-0.085,0.817-0.087,1.227,0.029
				c1.642,0.461,2.524,2.479,1.957,4.498c-0.567,2.019-2.359,3.265-4.001,2.804c-1.643-0.461-2.495-2.45-1.928-4.469
				C447.17,272.581,448.267,271.488,449.49,271.233z"/>
			<g>
				<path style="fill:none;stroke:#FF367C;stroke-width:2;stroke-linecap:round;stroke-linejoin:round;stroke-miterlimit:10;" d="
					M427.549,298.512c-0.25-2.887,1.887-5.431,4.774-5.681c2.887-0.251,5.43,1.886,5.681,4.773c0.251,2.887-1.887,5.431-4.774,5.682
					C430.343,303.536,427.8,301.399,427.549,298.512z"/>
				<path style="fill:none;stroke:#FF367C;stroke-width:2;stroke-linecap:round;stroke-linejoin:round;stroke-miterlimit:10;" d="
					M440.131,317.046c-0.251-2.888,1.886-5.431,4.773-5.682c2.887-0.25,5.431,1.887,5.681,4.774
					c0.251,2.887-1.886,5.431-4.773,5.681C442.925,322.07,440.381,319.933,440.131,317.046z"/>
				<path style="fill:none;stroke:#FF367C;stroke-width:2;stroke-linecap:round;stroke-linejoin:round;stroke-miterlimit:10;" d="
					M453.941,297.913l-28.793,17.689"/>
			</g>
		</g>
	</g>
</g>
<g id="Like_icon">
	<g>
		<path style="fill:#FFC051;" d="M399.925,220.356c0-15.246,12.359-27.604,27.605-27.604c15.245,0,27.604,12.358,27.604,27.604
			c0,15.245-12.359,27.604-27.604,27.604C412.284,247.96,399.925,235.601,399.925,220.356z"/>
		<g>
			<path style="fill:none;stroke:#FFFFFF;stroke-width:2;stroke-linecap:round;stroke-linejoin:round;stroke-miterlimit:10;" d="
				M442.557,214.375v17.654c0,0-26.756,1.678-28.774-2.022c-1.69-3.098-2.032-14.726,0.985-15.436
				c5.929-1.394,10.557-0.919,10.557-0.919s0.528-12.614,5.7-11.712c1.568,0.273,2.745,11.712,2.745,11.712L442.557,214.375z"/>
			<path style="fill:none;stroke:#FFFFFF;stroke-width:2;stroke-linecap:round;stroke-linejoin:round;stroke-miterlimit:10;" d="
				M437.649,213.96v18.294"/>
			<path style="fill:none;stroke:#FFFFFF;stroke-width:2;stroke-linecap:round;stroke-linejoin:round;stroke-miterlimit:10;" d="
				M420.792,219.924l-7.95,0.144"/>
			<path style="fill:none;stroke:#FFFFFF;stroke-width:2;stroke-linecap:round;stroke-linejoin:round;stroke-miterlimit:10;" d="
				M420.792,225.679l-7.95,0.144"/>
		</g>
	</g>
</g>
<g id="Stars">
	<g>
		<path style="fill:none;stroke:#FF367C;stroke-width:2;stroke-linecap:round;stroke-linejoin:round;stroke-miterlimit:10;" d="
			M280.041,45.693c0-5.988,4.854-10.842,10.842-10.842h135.385c5.988,0,10.842,4.854,10.842,10.842v2.004
			c0,5.988-4.854,10.842-10.842,10.842H290.883c-5.988,0-10.842-4.854-10.842-10.842V45.693z"/>
		<path style="fill:#FFC051;" d="M353.921,53.344l1.83-5.167l-4.349-3.337l5.48,0.143l1.83-5.167l1.557,5.256l5.48,0.143
			l-4.518,3.105l1.557,5.256l-4.349-3.337L353.921,53.344z"/>
		<path style="fill:#FFC051;" d="M379.353,53.344l1.83-5.167l-4.349-3.337l5.48,0.143l1.83-5.167l1.557,5.256l5.479,0.143
			l-4.517,3.105l1.557,5.256l-4.349-3.337L379.353,53.344z"/>
		<path style="fill:#FFC051;" d="M404.785,53.344l1.83-5.167l-4.349-3.337l5.48,0.143l1.829-5.167l1.557,5.256l5.48,0.143
			l-4.517,3.105l1.557,5.256l-4.349-3.337L404.785,53.344z"/>
		<path style="fill:#FF367C;" d="M303.058,53.344l1.829-5.167l-4.349-3.337l5.48,0.143l1.83-5.167l1.557,5.256l5.48,0.143
			l-4.518,3.105l1.557,5.256l-4.349-3.337L303.058,53.344z"/>
		<path style="fill:#FF367C;" d="M328.489,53.344l1.83-5.167l-4.349-3.337l5.48,0.143l1.83-5.167l1.557,5.256l5.48,0.143
			l-4.518,3.105l1.557,5.256l-4.349-3.337L328.489,53.344z"/>
	</g>
</g>
<g id="Heart">
	<g id="Layer-41_1_">
		<path style="fill:#FF367C;" d="M31.352,234.561c0-12.564,10.185-22.75,22.75-22.75c12.564,0,22.75,10.186,22.75,22.75
			c0,12.565-10.186,22.751-22.75,22.751C41.538,257.312,31.352,247.126,31.352,234.561z"/>
		<path style="fill:#FFFFFF;" d="M60.847,224.329c-3.805,0.108-6.941,7.239-6.941,7.239s-2.546-7.916-7.001-7.06
			c-0.613,0.117-1.361,0.365-1.907,1.072c-5.299,6.86,8.908,19.216,8.908,19.215c0,0,14.952-13.679,9.146-19.662
			C62.375,224.438,61.496,224.311,60.847,224.329z"/>
	</g>
</g>
<g id="Credit_card">
	<g>
		<path style="fill:none;stroke:#FFC051;stroke-width:2;stroke-linecap:round;stroke-linejoin:round;stroke-miterlimit:10;" d="
			M77.358,47.294c-0.582-4.748,2.795-9.069,7.543-9.651l132.568-16.25c4.748-0.582,9.068,2.795,9.65,7.543l9.138,74.547
			c0.582,4.749-2.796,9.069-7.544,9.651l-132.567,16.25c-4.748,0.582-9.069-2.796-9.651-7.544L77.358,47.294z"/>
		<path style="fill:#FFC051;" d="M100.138,97.175c-0.192-1.565,0.921-2.99,2.487-3.181l45.299-5.553
			c1.565-0.192,2.99,0.922,3.182,2.487l0.735,5.999c0.192,1.566-0.921,2.99-2.486,3.182l-45.299,5.553
			c-1.565,0.191-2.989-0.922-3.181-2.487L100.138,97.175z"/>
		<path style="fill:#FFC051;" d="M102.035,111.464c-0.101-0.822,0.484-1.57,1.307-1.671l60.063-7.363
			c0.822-0.101,1.57,0.485,1.671,1.307l0.044,0.359c0.101,0.822-0.484,1.57-1.306,1.671l-60.063,7.363
			c-0.822,0.101-1.571-0.484-1.672-1.307L102.035,111.464z"/>
		<g>
			<path style="fill:#FF367C;" d="M96.023,66.112L94.307,53.12l4.551-0.601c1.576-0.208,2.812-0.064,3.707,0.432
				c0.894,0.496,1.419,1.327,1.572,2.493c0.084,0.637-0.005,1.219-0.268,1.747c-0.263,0.528-0.671,0.943-1.224,1.246
				c0.688,0.078,1.257,0.345,1.708,0.8c0.449,0.455,0.724,1.048,0.819,1.78c0.165,1.249-0.108,2.248-0.82,2.995
				c-0.712,0.748-1.806,1.225-3.28,1.432L96.023,66.112z M97.703,58.21l1.98-0.261c1.348-0.202,1.952-0.829,1.813-1.882
				c-0.078-0.589-0.305-0.99-0.681-1.204c-0.376-0.213-0.933-0.271-1.671-0.174l-1.874,0.247L97.703,58.21z M97.953,60.102
				l0.463,3.507l2.293-0.303c0.631-0.083,1.103-0.298,1.418-0.646c0.314-0.347,0.436-0.786,0.366-1.315
				c-0.157-1.19-0.852-1.712-2.086-1.568L97.953,60.102z"/>
			<path style="fill:#FF367C;" d="M114.666,60.927l-4.693,0.619l-0.539,2.794l-2.846,0.376l3.121-13.631l2.48-0.327l6.579,12.35
				l-2.847,0.376L114.666,60.927z M110.41,59.283l3.248-0.429l-2.275-4.647L110.41,59.283z"/>
			<path style="fill:#FF367C;" d="M130.546,61.554l-2.676,0.354l-6.34-7.86l1.128,8.548l-2.677,0.354l-1.715-12.992l2.677-0.353
				l6.351,7.877l-1.132-8.566l2.668-0.352L130.546,61.554z"/>
			<path style="fill:#FF367C;" d="M136.265,55.497l-1.194,1.683l0.49,3.713l-2.677,0.353l-1.716-12.992l2.678-0.354l0.777,5.89
				l0.964-1.771l2.747-4.711l3.292-0.435l-3.85,6.383l5.7,6.591l-3.185,0.42L136.265,55.497z"/>
		</g>
	</g>
</g>
<g id="Speech_bubble">
	<g>
		<g>
			<path style="fill:none;stroke:#FF367C;stroke-width:2;stroke-linecap:round;stroke-linejoin:round;stroke-miterlimit:10;" d="
				M103.725,181.219c8.177-5.909,13.499-15.525,13.499-26.385c0-17.966-14.565-32.531-32.531-32.531s-32.53,14.565-32.53,32.531
				s14.564,32.53,32.53,32.53c2.491,0,4.916-0.279,7.246-0.81"/>
			<path style="fill:none;stroke:#FF367C;stroke-width:2;stroke-linecap:round;stroke-linejoin:round;stroke-miterlimit:10;" d="
				M103.768,181.201c0,0,2.66,7.338,7.555,10.486c7.776,5.002,11.064,5.081,11.064,5.081s-11.615,1.44-18.756-1.093
				c-7.293-2.585-11.593-9.142-11.593-9.142"/>
		</g>
		<g>
			
				<path style="fill:none;stroke:#263238;stroke-width:2.2908;stroke-linecap:round;stroke-linejoin:round;stroke-miterlimit:10;" d="
				M72.435,144.835h28.534l-5.767,19.901H76.933L72.435,144.835z"/>
			<path style="fill:#263238;" d="M76.678,171.745c0-2.132,1.471-3.859,3.285-3.859c1.814,0,3.285,1.727,3.285,3.859
				c0,2.13-1.471,3.858-3.285,3.858C78.149,175.602,76.678,173.875,76.678,171.745z"/>
			<path style="fill:#263238;" d="M89.169,171.745c0-2.132,1.471-3.859,3.285-3.859c1.814,0,3.285,1.727,3.285,3.859
				c0,2.13-1.471,3.858-3.285,3.858C90.64,175.602,89.169,173.875,89.169,171.745z"/>
			
				<path style="fill:none;stroke:#263238;stroke-width:2.2908;stroke-linecap:round;stroke-linejoin:round;stroke-miterlimit:10;" d="
				M73.024,147.338l-2.021-7.905l-8.321-0.06"/>
			
				<path style="fill:none;stroke:#263238;stroke-width:2.2908;stroke-linecap:round;stroke-linejoin:round;stroke-miterlimit:10;" d="
				M79.131,144.835v19.901"/>
			
				<path style="fill:none;stroke:#263238;stroke-width:2.2908;stroke-linecap:round;stroke-linejoin:round;stroke-miterlimit:10;" d="
				M85.947,144.835v19.901"/>
			
				<path style="fill:none;stroke:#263238;stroke-width:2.2908;stroke-linecap:round;stroke-linejoin:round;stroke-miterlimit:10;" d="
				M92.764,144.835v19.901"/>
			
				<path style="fill:none;stroke:#263238;stroke-width:2.2908;stroke-linecap:round;stroke-linejoin:round;stroke-miterlimit:10;" d="
				M74.394,151.396H99.09"/>
			
				<path style="fill:none;stroke:#263238;stroke-width:2.2908;stroke-linecap:round;stroke-linejoin:round;stroke-miterlimit:10;" d="
				M76.067,158.734h20.874"/>
		</g>
	</g>
</g>
<g id="Character_2">
	<g>
		<g>
			<g id="Layer-6_00000145051020216616028280000002944066903448088451_">
				<path style="fill:#FFFFFF;" d="M168.406,99.452c0-9.805,8.558-17.753,19.114-17.753h149.538
					c10.556,0,19.114,7.949,19.114,17.753V412.02c0,9.805-8.558,17.753-19.114,17.753H187.52c-10.556,0-19.114-7.948-19.114-17.753
					V99.452z"/>
			</g>
			<g id="Layer-12_00000111896887911843264040000004041436949975307450_">
				<path style="fill:#FF367C;" d="M190.27,106.897c-3.315,0-6.031,2.685-6.031,6v8.125h156.093v-8.125c0-3.315-2.684-6-6-6H190.27z
					"/>
			</g>
			<g id="Layer-13_00000151544160229329757510000006755336558796920751_">
				<g>
					<path style="fill:#FFFFFF;" d="M324.51,114.829c0-0.894,0.724-1.619,1.618-1.619c0.895,0,1.619,0.725,1.619,1.619
						c0,0.894-0.724,1.619-1.619,1.619C325.234,116.448,324.51,115.723,324.51,114.829z"/>
					<path style="fill:#FFFFFF;" d="M330.383,114.829c0-0.894,0.725-1.619,1.619-1.619c0.894,0,1.619,0.725,1.619,1.619
						c0,0.894-0.725,1.619-1.619,1.619C331.108,116.448,330.383,115.723,330.383,114.829z"/>
					<path style="fill:#FFFFFF;" d="M318.637,114.829c0-0.894,0.725-1.619,1.619-1.619s1.619,0.725,1.619,1.619
						c0,0.894-0.725,1.619-1.619,1.619S318.637,115.723,318.637,114.829z"/>
				</g>
			</g>
			<g id="Layer-27_00000103973961109381105410000005929676765755454398_">
				<path style="fill:#FF367C;" d="M232.05,332.584c-4.175,0.088-8.306,2.122-9.219,5.75c-2.169,8.625,9.376,27.25,9.376,27.25
					c-0.001,0,11.354-19.738,9.374-27.094C240.462,334.331,236.227,332.496,232.05,332.584z M232.363,337.553
					c1.998,0,3.625,1.595,3.625,3.594c0,1.998-1.627,3.624-3.625,3.624c-1.999,0-3.625-1.626-3.625-3.624
					C228.738,339.148,230.364,337.553,232.363,337.553z"/>
			</g>
			<path style="fill:none;stroke:#FFC051;stroke-width:2;stroke-linecap:round;stroke-linejoin:round;stroke-miterlimit:10;" d="
				M203.132,191.886h58.32v45.067h-58.32V191.886z"/>
			<path style="fill:#FFC051;" d="M203.477,211.875l22.199,10.213l35.511-14.152l0.141,28.74l-58.274-0.167L203.477,211.875z"/>
			<path style="fill:#FFC051;" d="M218.003,205.492c0-2.707,2.194-4.901,4.901-4.901c2.706,0,4.9,2.194,4.9,4.901
				c0,2.706-2.194,4.901-4.9,4.901C220.197,210.393,218.003,208.198,218.003,205.492z"/>
			<path style="fill:none;stroke:#FFC051;stroke-width:2;stroke-linecap:round;stroke-linejoin:round;stroke-miterlimit:10;" d="
				M203.207,262.672h58.321v45.066h-58.321V262.672z"/>
			<path style="fill:#FFC051;" d="M203.553,282.66l22.2,10.214l35.511-14.152l0.14,28.739l-58.273-0.167L203.553,282.66z"/>
			<path style="fill:#FFC051;" d="M218.079,276.277c0-2.706,2.194-4.901,4.901-4.901s4.901,2.195,4.901,4.901
				c0,2.707-2.194,4.901-4.901,4.901S218.079,278.984,218.079,276.277z"/>
			<path style="fill:none;stroke:#FFC051;stroke-width:2;stroke-linecap:round;stroke-linejoin:round;stroke-miterlimit:10;" d="
				M203.285,326.542h58.32v45.067h-58.32V326.542z"/>
			<path style="fill:#FF367C;" d="M252.206,137.278c0-2.235,1.811-4.046,4.045-4.046h61.577c2.235,0,4.046,1.811,4.046,4.046v2.427
				c0,2.234-1.811,4.046-4.046,4.046h-61.577c-2.234,0-4.045-1.812-4.045-4.046V137.278z"/>
			<path style="fill:#FFC051;" d="M252.206,153.209c0-1.69,1.37-3.06,3.06-3.06h46.58c1.69,0,3.06,1.37,3.06,3.06v1.837
				c0,1.69-1.37,3.06-3.06,3.06h-46.58c-1.69,0-3.06-1.37-3.06-3.06V153.209z"/>
			<path style="fill:none;stroke:#263238;stroke-width:2;stroke-linecap:round;stroke-linejoin:round;stroke-miterlimit:10;" d="
				M202.702,138.855c0-3.106,2.518-5.623,5.623-5.623h26.483c3.106,0,5.624,2.517,5.624,5.623v26.483
				c0,3.106-2.518,5.623-5.624,5.623h-26.483c-3.105,0-5.623-2.517-5.623-5.623V138.855z"/>
			<path style="fill:none;stroke:#FFC051;stroke-width:2;stroke-linecap:round;stroke-linejoin:round;stroke-miterlimit:10;" d="
				M199.386,251.368h126.542"/>
			<path style="fill:none;stroke:#FFC051;stroke-width:2;stroke-linecap:round;stroke-linejoin:round;stroke-miterlimit:10;" d="
				M272.262,265.209h38.812"/>
			<path style="fill:none;stroke:#FFC051;stroke-width:2;stroke-linecap:round;stroke-linejoin:round;stroke-miterlimit:10;" d="
				M271.784,271.376h39.04"/>
			<path style="fill:none;stroke:#FFC051;stroke-width:2;stroke-linecap:round;stroke-linejoin:round;stroke-miterlimit:10;" d="
				M271.589,279.037H310.4"/>
			<path style="fill:none;stroke:#FFC051;stroke-width:2;stroke-linecap:round;stroke-linejoin:round;stroke-miterlimit:10;" d="
				M271.111,285.205h39.039"/>
			<path style="fill:none;stroke:#FFC051;stroke-width:2;stroke-linecap:round;stroke-linejoin:round;stroke-miterlimit:10;" d="
				M199.386,317.269h126.542"/>
			<path style="fill:none;stroke:#FFC051;stroke-width:2;stroke-linecap:round;stroke-linejoin:round;stroke-miterlimit:10;" d="
				M199.386,180.583h126.542"/>
			<path style="fill:none;stroke:#263238;stroke-width:2;stroke-linecap:round;stroke-linejoin:round;stroke-miterlimit:10;" d="
				M236.453,407.685c0-0.98,1.082-1.774,2.417-1.774h46.836c1.335,0,2.417,0.794,2.417,1.774v4.838c0,0.979-1.082,1.773-2.417,1.773
				H238.87c-1.335,0-2.417-0.794-2.417-1.773V407.685z"/>
			<path style="fill:none;stroke:#263238;stroke-width:2;stroke-linecap:round;stroke-linejoin:round;stroke-miterlimit:10;" d="
				M243.178,95.268c0-0.725,0.8-1.312,1.788-1.312h34.644c0.988,0,1.788,0.587,1.788,1.312v3.578c0,0.725-0.8,1.312-1.788,1.312
				h-34.644c-0.988,0-1.788-0.588-1.788-1.312V95.268z"/>
			<path style="fill:none;stroke:#263238;stroke-width:2;stroke-linecap:round;stroke-linejoin:round;stroke-miterlimit:10;" d="
				M168.406,99.452c0-9.805,8.558-17.753,19.114-17.753h149.538c10.556,0,19.114,7.949,19.114,17.753V412.02
				c0,9.805-8.558,17.753-19.114,17.753H187.52c-10.556,0-19.114-7.948-19.114-17.753V99.452z"/>
			<path style="fill:none;stroke:#263238;stroke-width:2;stroke-linecap:round;stroke-linejoin:round;stroke-miterlimit:10;" d="
				M184.253,112.892c0-3.315,2.687-6.003,6.003-6.003h144.065c3.315,0,6.002,2.688,6.002,6.003v276.952
				c0,3.315-2.687,6.003-6.002,6.003H190.257c-3.316,0-6.003-2.688-6.003-6.003V112.892z"/>
			<path style="fill:#FFFFFF;stroke:#263238;stroke-width:2;stroke-linecap:round;stroke-linejoin:round;stroke-miterlimit:10;" d="
				M199.386,97.058c0-2.026,1.642-3.669,3.668-3.669c2.027,0,3.669,1.643,3.669,3.669c0,2.026-1.642,3.669-3.669,3.669
				C201.028,100.726,199.386,99.084,199.386,97.058z"/>
			<g>
				<path style="fill:none;stroke:#263238;stroke-linecap:round;stroke-linejoin:round;stroke-miterlimit:10;" d="M212.921,146.283
					h17.691l-3.576,12.338h-11.326L212.921,146.283z"/>
				<path style="fill:#263238;" d="M215.551,162.966c0-1.321,0.912-2.392,2.037-2.392s2.037,1.071,2.037,2.392
					s-0.912,2.392-2.037,2.392S215.551,164.287,215.551,162.966z"/>
				<path style="fill:#263238;" d="M223.296,162.966c0-1.321,0.912-2.392,2.037-2.392s2.037,1.071,2.037,2.392
					s-0.912,2.392-2.037,2.392S223.296,164.287,223.296,162.966z"/>
				<path style="fill:none;stroke:#263238;stroke-linecap:round;stroke-linejoin:round;stroke-miterlimit:10;" d="M213.286,147.834
					l-1.253-4.9l-5.159-0.037"/>
				<path style="fill:none;stroke:#263238;stroke-linecap:round;stroke-linejoin:round;stroke-miterlimit:10;" d="M217.071,146.283
					v12.338"/>
				<path style="fill:none;stroke:#263238;stroke-linecap:round;stroke-linejoin:round;stroke-miterlimit:10;" d="M221.298,146.283
					v12.338"/>
				<path style="fill:none;stroke:#263238;stroke-linecap:round;stroke-linejoin:round;stroke-miterlimit:10;" d="M225.524,146.283
					v12.338"/>
				<path style="fill:none;stroke:#263238;stroke-linecap:round;stroke-linejoin:round;stroke-miterlimit:10;" d="M214.234,150.351
					h15.212"/>
				<path style="fill:none;stroke:#263238;stroke-linecap:round;stroke-linejoin:round;stroke-miterlimit:10;" d="M215.173,154.899
					h12.942"/>
			</g>
			<g id="Layer-11_00000012474766604274768970000012187022056075476357_">
				<path style="fill:#FF367C;" d="M230.611,135.601c0-4.502,3.649-8.151,8.15-8.151c4.501,0,8.15,3.649,8.15,8.151
					c0,4.501-3.649,8.15-8.15,8.15C234.26,143.751,230.611,140.102,230.611,135.601z"/>
			</g>
			<g>
				<path style="fill:#FFFFFF;" d="M241.224,139.156h-5.36v-1.063l2.53-2.696c0.347-0.379,0.605-0.711,0.771-0.994
					c0.167-0.283,0.25-0.551,0.25-0.806c0-0.347-0.088-0.621-0.263-0.819c-0.175-0.199-0.426-0.298-0.752-0.298
					c-0.351,0-0.627,0.121-0.83,0.363c-0.203,0.241-0.304,0.559-0.304,0.953h-1.558c0-0.476,0.114-0.911,0.341-1.305
					c0.227-0.394,0.549-0.703,0.964-0.926c0.415-0.224,0.886-0.336,1.413-0.336c0.806,0,1.432,0.193,1.877,0.58
					c0.446,0.387,0.669,0.933,0.669,1.638c0,0.387-0.1,0.781-0.301,1.182c-0.201,0.401-0.545,0.868-1.031,1.402l-1.778,1.875h3.362
					V139.156z"/>
			</g>
		</g>
		<g>
			<path style="fill:#263238;" d="M295.522,233.375c0,0-6.724,8.51-6.724,19.06c0,9.514,9.493,14.694,9.493,14.694l-16.893,58.019
				l-42.637,51.474l35.473,19.073l13.806,0.114c0,0,43.544-58.304,45.581-70.661c2.477-15.032,3.588-53.772,3.588-53.772
				l17.594,49.393l-5.33,92.565l53.562-15.464c0,0,0.708-83.892-4.697-100.949c-5.406-17.056-47.495-71.785-47.495-71.785
				L295.522,233.375z"/>
			<path style="fill:none;stroke:#FF367C;stroke-width:2;stroke-linecap:round;stroke-linejoin:round;stroke-miterlimit:10;" d="
				M328.882,262.672c0,0-4.389,51.344-7.007,62.476c-2.618,11.133-43.318,65.265-43.318,65.265"/>
			<path style="fill:none;stroke:#FF367C;stroke-width:2;stroke-linecap:round;stroke-linejoin:round;stroke-miterlimit:10;" d="
				M360.176,252.264c0,0,25.543,36.754,28.325,47.256c2.781,10.502,4.646,96.327,4.646,96.327"/>
			<g id="Layer-8_00000096739692351755506480000003751311416492208006_">
				<path style="fill:#FF367C;" d="M351.934,227.558c0,0-9.274,7.652-19.655,9.43c-12.906,2.21-21.586-1.424-21.586-1.424
					s-18.729,11.354-36.615,7.084c-17.886-4.27-33.058-21.777-12.442-52.028c17.215-25.262,52.221-29.133,52.221-29.133
					s11.285,12.346,23.403,12.346c10.082,0,18.662-7.001,18.662-7.001s8.371,7.174,11.474,13.751
					c3.034,6.431,3.756,11.303,3.756,11.303s4.801-24.291,16.726-26.528c11.924-2.236,28.693,3.304,24.376,22.012
					c-4.318,18.708-19.342,52.456-36.481,52.456C361.768,239.826,351.934,227.558,351.934,227.558z"/>
			</g>
			<g id="Layer-46_00000031926287732207221870000004223432125396126352_">
				<path style="fill:none;stroke:#FFFFFF;stroke-width:2;stroke-linecap:round;stroke-linejoin:round;stroke-miterlimit:10;" d="
					M312.664,164.001l11.737,16.582l12.519-4.584l9.877,4.584l9.374-11.242"/>
			</g>
			<path style="fill:none;stroke:#263238;stroke-width:2;stroke-linecap:round;stroke-linejoin:round;stroke-miterlimit:10;" d="
				M367.775,410.297c1.416,5.084,5.729,20.576,5.729,20.576s4.876-1.04,11.966-2.632l-1.622-7.933l28.048-0.214
				c0,0,25.111-5.14,26.723-6.582c3.439-3.075-7.137-6.1-17.3-8.787c-9.66-2.555-20.427-3.391-20.427-3.391"/>
			<path style="fill:none;stroke:#FFC051;stroke-width:2;stroke-linecap:round;stroke-linejoin:round;stroke-miterlimit:10;" d="
				M405.072,408.363l7.875-10.643"/>
			<path style="fill:none;stroke:#FFC051;stroke-width:2;stroke-linecap:round;stroke-linejoin:round;stroke-miterlimit:10;" d="
				M410.658,408.957l7.875-10.643"/>
			<path style="fill:none;stroke:#263238;stroke-width:2;stroke-linecap:round;stroke-linejoin:round;stroke-miterlimit:10;" d="
				M244.556,377.782l-10.278,13.41l4.483,3.835"/>
			<g id="Layer-16_00000029031717616103581250000012055480860952714679_">
				<path style="fill:none;stroke:#FFFFFF;stroke-width:2;stroke-linecap:round;stroke-linejoin:round;stroke-miterlimit:10;" d="
					M281.398,201.591c0,0,16.141-6.45,28.739-1c10.776,4.661,10.776,18.856,8.499,24.545c-2.053,5.13-6.213,9.373-6.213,9.373"/>
				<path style="fill:none;stroke:#FFFFFF;stroke-width:2;stroke-linecap:round;stroke-linejoin:round;stroke-miterlimit:10;" d="
					M304.66,182.769l-6.949,15.702"/>
				<path style="fill:none;stroke:#FFFFFF;stroke-width:2;stroke-linecap:round;stroke-linejoin:round;stroke-miterlimit:10;" d="
					M357.828,186.6c0,0,3.857,9.604,2.348,22.441c-0.903,7.686-7.353,16.095-7.353,16.095"/>
			</g>
			<g id="Layer-17_00000109724836499268198470000002697531868060107426_">
				<path style="fill:none;stroke:#263238;stroke-width:2;stroke-linecap:round;stroke-linejoin:round;stroke-miterlimit:10;" d="
					M311.073,203.792c0,0,9.897-18.262,27.631-12.189c7.169,2.455,5.696,7.517,5.696,7.517s-2.451-1.655-6.128-2.833
					s-9.047-0.392-9.047-0.392s7.066-0.429,9.3,0.432c2.234,0.86,8.462,2.778,7.195,6.221c-0.871,2.366-5.172-0.096-8.009-0.313
					c-2.837-0.216-7.229,0.004-7.229,0.004s2.842,0.462,7.646,1.562c4.589,1.052,5.507,3.549,4.7,5.132
					c-0.797,1.563-12.847-0.389-12.847-0.389s-5.868,9.618-14.801,6.587"/>
			</g>
			<g id="Layer-22_00000004511429668252893970000010231111532958944641_">
				<path style="fill:none;stroke:#263238;stroke-width:2;stroke-linecap:round;stroke-linejoin:round;stroke-miterlimit:10;" d="
					M278.133,252.712l8.908,2.607l-16.688,59.816l-4.188-2.072l-7.895,4.002l-8.311-5.443"/>
				<path style="fill:none;stroke:#263238;stroke-width:2;stroke-linecap:round;stroke-linejoin:round;stroke-miterlimit:10;" d="
					M275.872,256.716l3.34,1.04l7.416-1.932"/>
				<path style="fill:none;stroke:#263238;stroke-width:2;stroke-linecap:round;stroke-linejoin:round;stroke-miterlimit:10;" d="
					M279.874,257.642l-21.831,59.627"/>
			</g>
			<g id="Layer-20_00000132783141968911899900000010091977115199709866_">
				<path style="fill:none;stroke:#263238;stroke-width:2;stroke-linecap:round;stroke-linejoin:round;stroke-miterlimit:10;" d="
					M250.633,236.555l27.95,14.125l-31.672,66.385l-3.733-2.924l-8.51,2.758l-31.614-28.778l40.398-51.747L250.633,236.555z"/>
			</g>
			<g id="Layer-21_00000056429210240872639750000018190857138954533561_">
				<path style="fill:none;stroke:#263238;stroke-width:2;stroke-linecap:round;stroke-linejoin:round;stroke-miterlimit:10;" d="
					M243.388,237.5l27.05,14.271l7.649-0.653"/>
				<path style="fill:none;stroke:#263238;stroke-width:2;stroke-linecap:round;stroke-linejoin:round;stroke-miterlimit:10;" d="
					M271.111,251.771l-36.702,65.294"/>
			</g>
			<g id="Layer-19_00000109017821734168201600000016458948995448298152_">
				<path style="fill:none;stroke:#263238;stroke-width:2;stroke-linecap:round;stroke-linejoin:round;stroke-miterlimit:10;" d="
					M300.561,196.707c6.589,10.23-18.666,45.568-27.541,59.029"/>
				<path style="fill:none;stroke:#263238;stroke-width:2;stroke-linecap:round;stroke-linejoin:round;stroke-miterlimit:10;" d="
					M303.066,196.908c8.74,8.763-13.053,48.673-20.548,63.726"/>
				<path style="fill:none;stroke:#263238;stroke-width:2;stroke-linecap:round;stroke-linejoin:round;stroke-miterlimit:10;" d="
					M254.726,229.205c-4.405,2.509-6.874,4.706-9.536,6.788"/>
			</g>
			<g id="Layer-23_00000143610723863831793830000016383599739402078848_">
				<path style="fill:#FFFFFF;" d="M325.618,145.322c0-7.904,6.407-14.312,14.311-14.312c7.904,0,14.312,6.408,14.312,14.312
					c0,7.904-6.408,14.311-14.312,14.311C332.025,159.633,325.618,153.226,325.618,145.322z"/>
			</g>
			<g id="Layer-10_00000107560763276046553700000012754115252111318439_">
				<path style="fill:#263238;" d="M296.406,130.162c-5.299,0.422-8.653,3.2-9.281,6.656c-0.838,4.609,5.74,17.112,23.719,14.313
					c5.88-0.915,11.591-3.241,14.531-4.5c0.436,2.647,1.344,4.5,1.344,4.5s5.437-0.008,8.875-5.031
					c5.364-7.839,3.719-15.156,3.719-15.156c-0.001,0-7.478-1.37-12.094,5.781c-0.654,1.012-1.085,2.033-1.406,3.062
					c-2.414,0.036-6.965-0.036-9.719-1.781c-3.591-2.274-5.762-5.768-13.781-7.406C300.143,130.157,298.173,130.022,296.406,130.162
					z"/>
			</g>
			<path style="fill:#FF367C;" d="M432.102,93.483c-0.519,0.075-1.03,0.195-1.532,0.363c-2.66,0.891-4.713,3.017-6.114,5.96
				c-1.335,1.776-4.729,5.912-10.884,11.059c-11.86,9.919-32.572,22.091-32.572,22.091l2.038,10.69c0,0,26.66-0.357,42.62,0.454
				c7.169,0.364,11.754,0.798,15.017,1.183c1.995,0.838,3.984,1.178,5.875,0.883c0.004,0.001,1.017-0.205,1.437-0.346
				c8.038-2.693,10.659-16.509,5.85-30.862C449.328,101.504,439.887,92.354,432.102,93.483z"/>
			<path style="fill:#263238;" d="M383.343,135.892c-0.596-1.528-2.476-2.081-3.805-1.119l-1.493,1.08
				c-0.835,0.604-1.215,1.658-0.958,2.656l0.47,1.822c0.269,1.046,1.178,1.802,2.255,1.876l2.215,0.152
				c1.834,0.126,3.176-1.699,2.508-3.412L383.343,135.892z"/>
			<path style="fill:none;stroke:#263238;stroke-width:2;stroke-linecap:round;stroke-linejoin:round;stroke-miterlimit:10;" d="
				M422.766,104.109c0,0-1.244,9.793,1.317,19.121c3.501,12.753,13.136,20.242,13.136,20.242"/>
			<path style="fill:#FFC051;" d="M397.648,122.444l-16.925,10.404c-0.125,0.076-0.19,0.221-0.164,0.365l1.836,10.182
				c0.03,0.167,0.174,0.29,0.344,0.292l7.503,0.093c0.179,0.002,0.328,0.137,0.348,0.315l2.109,18.899
				c0.023,0.206,0.215,0.348,0.418,0.309l9.01-1.711c0.15-0.033,0.248-0.177,0.223-0.329l-4.044-17.251
				c-0.029-0.173,0.102-0.331,0.277-0.335l4.743-0.044c0,0-4.186-5.926-5.123-10.7C397.22,127.928,397.648,122.444,397.648,122.444z
				"/>
			<path style="fill:#263238;" d="M430.077,123.314c-3.951-11.792-2.375-22.952,3.519-24.927
				c5.894-1.975,13.875,5.983,17.826,17.775c3.951,11.792,2.375,22.952-3.519,24.927
				C442.009,143.064,434.029,135.106,430.077,123.314z"/>
			<path style="fill:#FF367C;" d="M430.402,114.756l13.658-0.125c0,0,1.227-0.071,2.132,2.286c0.882,2.295,0.06,3.558,0.06,3.558
				l-10.173,10.079c0,0-2.358-3.712-3.777-7.662C430.882,118.943,430.402,114.756,430.402,114.756z"/>
			<path style="fill:none;stroke:#263238;stroke-width:2;stroke-linecap:round;stroke-linejoin:round;stroke-miterlimit:10;" d="
				M443.28,115.401c0,0-0.442,1.459,0.001,2.716c0.612,1.739,1.946,2.219,1.946,2.219"/>
			<path style="fill:none;stroke:#263238;stroke-width:2;stroke-linecap:round;stroke-linejoin:round;stroke-miterlimit:10;" d="
				M386.921,170.747c0,0-5.798-7.372-4.11-16.454c1.544-8.309,8.684-9.454,11.175-10.006c3.529-0.782,12.294-0.007,9.608,4.465
				c-1.396,2.325-10.845,2.174-10.845,2.174s3.41,5.402-1.64,12.11"/>
			<path style="fill:none;stroke:#263238;stroke-width:2;stroke-linecap:round;stroke-linejoin:round;stroke-miterlimit:10;" d="
				M399.719,150.483c0,0,6.591-1.257,5.414,3.31c-0.387,1.504-7.602,3.811-9.76,2.304c-2.325-1.624-1.078-4.843-1.078-4.843"/>
			<path style="fill:none;stroke:#263238;stroke-width:2;stroke-linecap:round;stroke-linejoin:round;stroke-miterlimit:10;" d="
				M405.306,153.097c0,0,1.957,4.418-2.186,5.908c-3.721,1.339-7.331,1.022-7.734-2.417"/>
			<path style="fill:none;stroke:#263238;stroke-width:2;stroke-linecap:round;stroke-linejoin:round;stroke-miterlimit:10;" d="
				M405.132,158.089c0.917,2.041-0.375,4.144-2.821,4.977c-2.445,0.833-6.761-0.997-5.889-3.637"/>
			<path style="fill:none;stroke:#263238;stroke-width:2;stroke-linecap:round;stroke-linejoin:round;stroke-miterlimit:10;" d="
				M402.779,162.907c0,0-0.015,1.887-0.648,3.45c-0.812,2.005-1.469,3.004-1.469,3.004"/>
			<path style="fill:#FFC051;" d="M461.807,118.485l18.268,1.799c0.507,0.065,0.926,0.35,1.098,0.741l1.013,6.848
				c0.38,0.866-0.719,1.552-1.739,1.094c-0.602-0.27-18.641-8.38-19.243-8.651C459.939,119.749,460.414,118.309,461.807,118.485z"/>
			<path style="fill:#FFC051;" d="M452.309,98.084l2.637-12.273c0.089-0.34,0.419-0.611,0.859-0.711l7.626-0.397
				c0.972-0.22,1.694,0.552,1.151,1.222c-0.321,0.396-9.944,12.248-10.265,12.643C453.645,99.399,452.064,99.018,452.309,98.084z"/>
			<path style="fill:#FFC051;" d="M474.155,97.971c0.492-0.315,1.284-0.194,1.806,0.267l5.028,6.279
				c0.725,0.641,0.541,1.585-0.346,1.747c-0.649,0.118-20.114,3.676-20.763,3.795c-1.335,0.244-2.491-1.354-1.46-2.014
				L474.155,97.971z"/>
			<path style="fill:#263238;" d="M352.275,139.066c0.035-0.81-0.594-1.495-1.404-1.53c-0.81-0.035-1.495,0.594-1.53,1.404
				c-0.034,0.811,0.594,1.496,1.404,1.53C351.556,140.505,352.241,139.876,352.275,139.066z"/>
			<path style="fill:none;stroke:#263238;stroke-width:2;stroke-linecap:round;stroke-linejoin:round;stroke-miterlimit:10;" d="
				M342.959,150.706c-0.275-1.217,0.489-2.426,1.705-2.7c1.217-0.275,2.426,0.489,2.7,1.705c0.275,1.217-0.489,2.426-1.705,2.7
				C344.442,152.686,343.233,151.922,342.959,150.706z"/>
			<path style="fill:#FF367C;" d="M338.206,145.466c0.041-0.951,0.845-1.69,1.797-1.649s1.691,0.845,1.65,1.797
				c-0.041,0.952-0.846,1.69-1.797,1.65C338.904,147.223,338.165,146.418,338.206,145.466z"/>
			<path style="fill:none;stroke:#263238;stroke-width:2;stroke-linecap:round;stroke-linejoin:round;stroke-miterlimit:10;" d="
				M354.759,145.959c0.352-8.218-6.024-15.164-14.242-15.516c-8.217-0.352-15.164,6.024-15.516,14.242
				c-0.352,8.217,6.025,15.164,14.242,15.516C347.461,160.553,354.407,154.176,354.759,145.959z"/>
			<path style="fill:#263238;" d="M344.68,141.638c0.034-0.81-0.594-1.495-1.405-1.53c-0.81-0.034-1.495,0.594-1.53,1.405
				c-0.034,0.81,0.595,1.495,1.405,1.529C343.96,143.077,344.645,142.448,344.68,141.638z"/>
			<path style="fill:none;stroke:#263238;stroke-width:2;stroke-linecap:round;stroke-linejoin:round;stroke-miterlimit:10;" d="
				M346.949,139.226l3.96,5.997l-2.963,0.403"/>
		</g>
	</g>
</g>
<g id="Character_1">
	<g>
		<g id="Layer-26_1_">
			<path style="fill:#FFFFFF;" d="M162.056,218.008c0.352-8.218-6.024-15.164-14.242-15.516
				c-8.217-0.352-15.164,6.024-15.516,14.242c-0.352,8.217,6.025,15.164,14.242,15.516
				C154.758,232.602,161.705,226.225,162.056,218.008z"/>
		</g>
		<g id="Layer-9_1_">
			<path style="fill:#FF367C;" d="M134.003,226.888c0,0-7.922,3.262-9.559-2.487c-1.325-4.654,3.926-6.651,3.926-6.651
				s-3.089-3.892-3.232-7.753c-0.131-3.529,2.726-8.092,6.549-8.92c1.807-0.392,3.514-0.361,3.514-0.361s-1.367-4.967,3.105-6.565
				c2.043-0.73,5.24-0.865,7.098,0.621c1.082,0.866,2.661,3.194,2.661,3.194s1.788-6.257,6.299-4.968
				c2.521,0.72,3.658,5.53,3.658,5.53s3.859-2.53,6.279-1.804c3.307,0.992,2.547,6.082,1.153,8.073c0,0,2.787-1.895,4.34-1.521
				c5.223,1.259,2.78,8.078,0.085,10.099c-0.175,0.131,8.197-1.926,7.987,5.082c-0.146,4.884-6.494,5.944-6.494,5.944
				s2.446,4.295,0.036,6.358c-6.134,5.252-12.955-2.465-12.955-2.465s3.285-3.528,4.214-6.719c0.93-3.19,0-4.528,0-4.528
				s-4.85,0.785-6.883-1.248c-1.457-1.457-1.331-5.856-1.331-5.856s-2.06,2.854-5.548,0.021c-2.859-2.324-3.155-5.877-3.155-5.877
				s-0.863,2.456-4.492,6.483c-1.929,2.14-9.571,3.895-9.571,3.895L134.003,226.888z"/>
		</g>
		<path style="fill:none;stroke:#263238;stroke-width:2;stroke-linecap:round;stroke-linejoin:round;stroke-miterlimit:10;" d="
			M132.113,221.205c-1.984-8.319,3.152-16.672,11.472-18.656c8.32-1.984,16.672,3.152,18.656,11.472
			c1.984,8.319-3.152,16.672-11.471,18.656C142.45,234.661,134.097,229.525,132.113,221.205z"/>
		<path style="fill:#FF367C;" d="M147.186,220.695c-0.094-0.96,0.6-1.813,1.55-1.906c0.95-0.092,1.796,0.611,1.889,1.57
			c0.094,0.96-0.601,1.813-1.55,1.906C148.125,222.357,147.279,221.654,147.186,220.695z"/>
		<path style="fill:#263238;" d="M143.289,218.224c-0.237-0.882,0.287-1.789,1.169-2.026c0.883-0.236,1.79,0.288,2.026,1.17
			c0.237,0.883-0.287,1.79-1.169,2.026C144.432,219.631,143.525,219.107,143.289,218.224z"/>
		<path style="fill:#263238;" d="M133.551,219.13c-0.237-0.883,0.287-1.79,1.169-2.027c0.883-0.236,1.79,0.288,2.026,1.17
			c0.237,0.883-0.287,1.79-1.169,2.026C134.694,220.536,133.787,220.012,133.551,219.13z"/>
		<path style="fill:none;stroke:#263238;stroke-width:2;stroke-linecap:round;stroke-linejoin:round;stroke-miterlimit:10;" d="
			M139.657,217.371l-1.873,5.97l3.474-0.243"/>
		<path style="fill:none;stroke:#263238;stroke-width:2;stroke-linecap:round;stroke-linejoin:round;stroke-miterlimit:10;" d="
			M145.155,224.401c0,0-0.35,1.665-1.507,2.316c-0.806,0.454-2.339-0.072-2.339-0.072"/>
		<g id="Layer-36_1_">
			<path style="fill:#FFFFFF;" d="M69.288,347.257l-20.531,23.031v93.937h129.156l20.532-24.437v-92.531H69.288z"/>
			<path style="fill:#FFFFFF;" d="M48.761,370.291l20.521-23.042"/>
			<path style="fill:#FFFFFF;" d="M177.912,370.291l20.521-23.042"/>
			<path style="fill:#FFFFFF;" d="M177.912,464.214l20.521-24.435"/>
			<path style="fill:#FFFFFF;" d="M59.756,357.325h130.289"/>
		</g>
		<path style="fill:none;stroke:#FF367C;stroke-width:2;stroke-linecap:round;stroke-linejoin:round;stroke-miterlimit:10;" d="
			M70.238,464.214H48.761v-93.923h129.151v93.923h-59.393"/>
		<path style="fill:none;stroke:#FF367C;stroke-width:2;stroke-linecap:round;stroke-linejoin:round;stroke-miterlimit:10;" d="
			M93.238,347.249h105.195v92.53"/>
		<path style="fill:none;stroke:#FF367C;stroke-width:2;stroke-linecap:round;stroke-linejoin:round;stroke-miterlimit:10;" d="
			M177.912,370.291l20.521-23.042"/>
		<path style="fill:none;stroke:#FF367C;stroke-width:2;stroke-linecap:round;stroke-linejoin:round;stroke-miterlimit:10;" d="
			M177.912,464.214l20.521-24.435"/>
		<path style="fill:none;stroke:#FF367C;stroke-width:2;stroke-linecap:round;stroke-linejoin:round;stroke-miterlimit:10;" d="
			M86.195,357.325h103.849"/>
		<path style="fill:#FF367C;" d="M167.641,352.725l-10.273,10.424l8.212-0.007l9.192-10.445L167.641,352.725z"/>
		<g>
			<path style="fill:none;stroke:#FF367C;stroke-width:2;stroke-linecap:round;stroke-linejoin:round;stroke-miterlimit:10;" d="
				M132.328,383.997c0-3.106,2.518-5.623,5.624-5.623h26.196c3.106,0,5.623,2.517,5.623,5.623v26.197
				c0,3.105-2.517,5.623-5.623,5.623h-26.196c-3.106,0-5.624-2.518-5.624-5.623V383.997z"/>
			<g>
				<path style="fill:none;stroke:#263238;stroke-width:2;stroke-linecap:round;stroke-linejoin:round;stroke-miterlimit:10;" d="
					M142.469,391.326h17.556l-3.548,12.244h-11.24L142.469,391.326z"/>
				<path style="fill:#263238;" d="M145.08,407.882c0-1.311,0.905-2.374,2.021-2.374s2.021,1.063,2.021,2.374
					c0,1.311-0.905,2.374-2.021,2.374S145.08,409.193,145.08,407.882z"/>
				<path style="fill:#263238;" d="M152.765,407.882c0-1.311,0.905-2.374,2.022-2.374c1.116,0,2.021,1.063,2.021,2.374
					c0,1.311-0.905,2.374-2.021,2.374C153.67,410.256,152.765,409.193,152.765,407.882z"/>
				<path style="fill:none;stroke:#263238;stroke-width:2;stroke-linecap:round;stroke-linejoin:round;stroke-miterlimit:10;" d="
					M142.832,392.865l-1.244-4.863l-5.119-0.037"/>
				<path style="fill:none;stroke:#263238;stroke-width:2;stroke-linecap:round;stroke-linejoin:round;stroke-miterlimit:10;" d="
					M146.589,391.326v12.244"/>
				<path style="fill:none;stroke:#263238;stroke-width:2;stroke-linecap:round;stroke-linejoin:round;stroke-miterlimit:10;" d="
					M150.783,391.326v12.244"/>
				<path style="fill:none;stroke:#263238;stroke-width:2;stroke-linecap:round;stroke-linejoin:round;stroke-miterlimit:10;" d="
					M154.977,391.326v12.244"/>
				<path style="fill:none;stroke:#263238;stroke-width:2;stroke-linecap:round;stroke-linejoin:round;stroke-miterlimit:10;" d="
					M143.197,395.362h15.673"/>
				<path style="fill:none;stroke:#263238;stroke-width:2;stroke-linecap:round;stroke-linejoin:round;stroke-miterlimit:10;" d="
					M144.704,399.877h13.185"/>
			</g>
		</g>
		<g id="Layer-31_1_">
			<path style="fill:#FFC051;" d="M172.57,310.21c0,0,14.12,21.3,5.3,37.039c-10.035,17.908-53.64,25.789-53.64,25.789l7.457,81.32
				l-57.37,0.585c0,0-2.74-78.849,2.862-92.149c5.602-13.3,59.193-51.599,59.193-51.599L172.57,310.21z"/>
		</g>
		<g id="Layer-29_1_">
			<path style="fill:#FF367C;" d="M143.226,236.663c-26.75,0-53.125,20.75-53.125,47.5s29.687,47.344,56.437,47.344
				c0.879,0,1.696-0.18,2.563-0.219c0.774,3.665,2.084,6.932,4.406,8.75c8.125,6.362,39.238-0.003,39.238-0.003
				s2.231-22.766,2.231-53.528C194.976,259.757,169.976,236.663,143.226,236.663z"/>
		</g>
		<g id="Layer-32_1_">
			<path style="fill:#FFC051;" d="M136.803,334.927c0,0-5.498-71.779-37.241-76.105c-39.043-5.32-49.889,88.397-49.889,88.397
				l43.83,0.03L136.803,334.927z"/>
		</g>
		<path style="fill:none;stroke:#263238;stroke-width:2;stroke-linecap:round;stroke-linejoin:round;stroke-miterlimit:10;" d="
			M124.901,328.806c0,0-8.978,3.746-16.639,7.673c-5.171,2.65-15.024,8.913-15.024,8.913"/>
		<path style="fill:none;stroke:#263238;stroke-width:2;stroke-linecap:round;stroke-linejoin:round;stroke-miterlimit:10;" d="
			M102.418,298.466c0,0,0.481,7.289,0.29,22.012c-0.081,6.211-1.331,19.557-1.331,19.557"/>
		<g id="Layer-33_1_">
			<path style="fill:#FF367C;" d="M157.368,258.822l-2.377,37.864c0,0-19.843-7.944-30.761-1.777
				c-10.015,5.657-11.821,18.25-0.629,29.61c10.265,10.42,41.659,10.226,54.311,2.17c18.45-11.747,12.133-56.563,12.133-56.563
				L157.368,258.822z"/>
		</g>
		<path style="fill:none;stroke:#263238;stroke-width:2;stroke-linecap:round;stroke-linejoin:round;stroke-miterlimit:10;" d="
			M132.284,292.042c0,0,6.887-1.91,13.496-0.382c8.21,1.865,11.318,4.027,11.318,4.027s0-1.776,0-15"/>
		<path style="fill:none;stroke:#263238;stroke-width:2;stroke-linecap:round;stroke-linejoin:round;stroke-miterlimit:10;" d="
			M188.173,277.183c0,0,2.916,12.581,2.689,23.363c-0.115,5.475-2.006,19.155-16.09,26.143c-11.816,5.863-22.379,5.863-22.379,5.863
			"/>
		<path style="fill:#FFFFFF;" d="M135.383,239.967c0,0,4.335-0.811,9.169-0.643c7.38,0.256,10.375,2.252,10.375,2.252
			l-16.649,33.136L135.383,239.967z"/>
		<path style="fill:none;stroke:#263238;stroke-width:2;stroke-linecap:round;stroke-linejoin:round;stroke-miterlimit:10;" d="
			M115.699,455.165l0.224,16.139c0,0-45.613,4.154-50.102,2.046c-3.025-1.42,3.549-6.599,9.857-10.465
			c7.417-4.547,15.682-7.942,15.682-7.942"/>
		<path style="fill:none;stroke:#FF367C;stroke-width:2;stroke-linecap:round;stroke-linejoin:round;stroke-miterlimit:10;" d="
			M90.094,461.825l-7.754-6.66"/>
		<path style="fill:none;stroke:#FF367C;stroke-width:2;stroke-linecap:round;stroke-linejoin:round;stroke-miterlimit:10;" d="
			M86.424,463.777l-7.754-6.66"/>
		<path style="fill:none;stroke:#263238;stroke-width:2;stroke-linecap:round;stroke-linejoin:round;stroke-miterlimit:10;" d="
			M74.586,366.305c0,0-33.273,2.708-37.762,0.6c-3.025-1.42,3.549-6.598,9.857-10.465c7.417-4.547,15.682-7.942,15.682-7.942"/>
		<path style="fill:none;stroke:#FF367C;stroke-width:2;stroke-linecap:round;stroke-linejoin:round;stroke-miterlimit:10;" d="
			M60.13,355.128l-7.754-6.66"/>
		<path style="fill:none;stroke:#FF367C;stroke-width:2;stroke-linecap:round;stroke-linejoin:round;stroke-miterlimit:10;" d="
			M57.428,357.332l-7.754-6.66"/>
		<g>
			<path style="fill:#FFFFFF;" d="M114.055,256.926c-0.55-2.589-3.14-4.283-5.784-3.785l-17.449-0.403
				c-2.644,0.499-4.341,3.001-3.791,5.59l7.263,34.17c0.55,2.589,3.14,4.283,5.784,3.785l17.449,0.403
				c2.644-0.498,4.342-3.001,3.791-5.59L114.055,256.926z"/>
			<path style="fill:none;stroke:#263238;stroke-width:2;stroke-linecap:round;stroke-linejoin:round;stroke-miterlimit:10;" d="
				M116.985,270.712l-2.93-13.786c-0.55-2.589-3.14-4.283-5.784-3.785l-17.449-0.403c-2.644,0.499-4.341,3.001-3.791,5.59
				l7.263,34.17c0.55,2.589,3.14,4.283,5.784,3.785l14.373,0.332"/>
			<path style="fill:#FFC051;" d="M95.321,259.408c0-1.151-0.932-2.084-2.083-2.084c-1.151,0-2.084,0.933-2.084,2.084
				s0.933,2.084,2.084,2.084C94.389,261.492,95.321,260.559,95.321,259.408z"/>
		</g>
		<path style="fill:none;stroke:#263238;stroke-width:2;stroke-linecap:round;stroke-linejoin:round;stroke-miterlimit:10;" d="
			M132.284,296.127c0,0-0.59-13.841-7.388-20.54c-9.457-9.32-25.99-5.136-23.427,1.598c0.657,1.726,2.989-0.997,7.703-0.433
			c4.309,0.514,8.491,2.565,8.491,2.565s-7.877-3.559-12.455-2.403c-7.505,1.896-5.363,7.482-5.363,7.482s4.179-0.922,7.655-0.831
			c3.475,0.092,8.252,1.816,8.252,1.816s-5.957-1.842-9.746-1.709c-3.839,0.136-6.631,0.637-5.93,3.681
			c0.964,4.19,13.434,5.853,13.434,5.853s0.717,7.925,9.093,11.678"/>
	</g>
	<path style="fill:none;stroke:#263238;stroke-width:2;stroke-linecap:round;stroke-linejoin:round;stroke-miterlimit:10;" d="
		M66.727,270.355c-2.666,5.358,4.493,15.847,6.482,10.509C75.197,275.526,69.949,263.88,66.727,270.355z"/>
	<path style="fill:none;stroke:#263238;stroke-width:2;stroke-linecap:round;stroke-linejoin:round;stroke-miterlimit:10;" d="
		M71.953,263.045c-3.154,6.338,5.315,18.746,7.667,12.431S75.764,255.385,71.953,263.045z"/>
	<path style="fill:none;stroke:#263238;stroke-width:2;stroke-linecap:round;stroke-linejoin:round;stroke-miterlimit:10;" d="
		M79.09,258.166c-3.154,6.823,5.315,20.182,7.667,13.384C89.109,264.752,82.901,249.92,79.09,258.166z"/>
	
		<polyline style="fill:none;stroke:#FFFFFF;stroke-width:2;stroke-linecap:round;stroke-linejoin:round;stroke-miterlimit:10;" points="
		158.021,242.745 163.638,256.79 138.447,282.336 	"/>
	
		<polyline style="fill:none;stroke:#FFFFFF;stroke-width:2;stroke-linecap:round;stroke-linejoin:round;stroke-miterlimit:10;" points="
		130.957,241.043 121.421,254.83 132.695,281.178 	"/>
	<path style="fill:none;stroke:#FFFFFF;stroke-width:2;stroke-linecap:round;stroke-linejoin:round;stroke-miterlimit:10;" d="
		M147.101,347.249c0,0-40.584,17.099-40.512,23.042c0.071,5.943,2.481,72.837,2.481,72.837"/>
</g>
</svg>
